<?xml version="1.0" standalone="no"?>
<!DOCTYPE svg PUBLIC "-//W3C//DTD SVG 20010904//EN"
 "http://www.w3.org/TR/2001/REC-SVG-20010904/DTD/svg10.dtd">
<svg version="1.0" xmlns="http://www.w3.org/2000/svg"
 width="2220.000000pt" height="2220.000000pt" viewBox="0 0 2220.000000 2220.000000"
 preserveAspectRatio="xMidYMid meet">
<metadata>
Created by potrace 1.14, written by Peter Selinger 2001-2017
</metadata>
<g transform="translate(0.000000,2220.000000) scale(0.100000,-0.100000)"
fill="#000000" stroke="none">
<path d="M2004 13542 c-5 -4 -29 -59 -54 -122 -24 -63 -47 -119 -52 -124 -4
-6 -8 -17 -8 -25 -1 -9 -9 -34 -20 -56 -11 -22 -19 -44 -20 -48 0 -4 -8 -27
-19 -50 -10 -23 -30 -71 -44 -107 -34 -89 -166 -423 -239 -605 -33 -82 -61
-154 -62 -160 -1 -5 -4 -14 -8 -20 -3 -5 -18 -41 -33 -80 -44 -114 -117 -298
-130 -330 -7 -16 -31 -77 -54 -135 -22 -58 -46 -118 -52 -135 -7 -16 -13 -32
-14 -35 -1 -3 -5 -14 -10 -25 -4 -11 -59 -150 -122 -310 -63 -159 -118 -299
-123 -310 -5 -11 -46 -114 -91 -230 -45 -115 -90 -228 -100 -251 -11 -22 -19
-44 -19 -48 0 -7 -6 -22 -41 -101 -5 -11 -24 -60 -43 -110 -27 -72 -144 -370
-181 -460 -5 -11 -9 -22 -10 -25 -1 -3 -5 -14 -10 -25 -4 -11 -21 -54 -37 -95
-16 -41 -33 -84 -37 -95 -5 -11 -16 -36 -25 -57 -9 -20 -16 -38 -16 -41 0 -3
-5 -18 -12 -34 -6 -15 -12 -30 -13 -33 -1 -3 -7 -18 -14 -35 -7 -16 -14 -34
-15 -40 -2 -5 -7 -19 -11 -30 -87 -209 -201 -506 -195 -510 4 -2 54 -4 111 -4
57 0 113 0 124 0 11 0 54 0 95 0 41 0 80 1 85 1 55 -2 422 -2 430 -1 6 1 14 0
20 -1 5 -1 48 -1 95 0 47 1 96 1 110 0 89 -5 150 -4 150 2 0 3 8 4 18 2 30 -7
142 -9 142 -2 0 3 8 4 18 2 30 -7 142 -9 142 -2 0 3 8 4 18 2 34 -8 142 -9
142 -1 0 5 4 6 9 2 9 -5 230 -9 256 -4 6 1 14 0 20 -1 5 -1 48 -1 95 0 47 1
90 1 95 1 87 -1 262 -1 270 0 6 1 14 0 20 -1 5 -1 48 -1 95 0 47 1 90 1 95 1
151 -4 238 -1 249 8 8 6 28 51 46 99 18 48 37 93 43 100 5 6 7 12 4 12 -4 0 9
36 27 80 19 44 32 80 29 80 -3 0 1 7 8 16 7 9 14 21 15 28 2 11 41 113 149
387 31 79 67 171 80 204 86 224 168 434 177 455 6 14 13 32 14 40 2 8 7 23 13
35 5 11 35 85 65 165 30 80 60 159 67 175 7 17 13 35 15 40 1 6 14 42 29 80
40 105 104 281 132 360 13 39 30 84 37 100 11 25 36 94 41 115 1 3 4 12 7 20
4 8 20 55 37 104 17 49 33 91 36 94 10 11 49 -17 197 -143 84 -71 155 -132
158 -135 3 -3 46 -39 95 -80 50 -41 101 -84 115 -96 24 -21 499 -412 530 -437
8 -7 40 -32 70 -57 30 -25 63 -52 73 -60 10 -8 28 -23 40 -34 12 -10 38 -30
57 -45 19 -14 41 -33 50 -41 9 -8 33 -28 54 -45 21 -16 46 -37 56 -45 32 -26
217 -176 319 -258 18 -15 38 -32 45 -37 6 -6 58 -48 116 -95 58 -46 121 -97
141 -114 20 -17 45 -38 55 -46 48 -37 380 -305 390 -315 6 -5 23 -19 38 -30
15 -11 38 -29 50 -40 13 -11 40 -33 61 -50 21 -16 50 -40 64 -52 14 -12 87
-70 161 -130 74 -59 142 -116 151 -125 9 -10 21 -18 27 -18 6 0 12 -4 14 -8 2
-6 99 -86 232 -192 10 -8 27 -23 37 -32 24 -23 52 -37 75 -37 10 -1 46 0 79 0
33 1 66 1 73 0 6 -1 18 -1 25 -1 6 -1 494 1 1082 4 589 3 1293 5 1566 6 373 0
500 4 511 13 9 7 30 38 47 70 75 138 95 174 111 202 10 17 32 57 50 90 18 33
42 76 53 95 11 19 35 63 53 97 19 34 47 85 64 113 16 28 30 55 30 60 0 6 5 10
10 10 6 0 10 6 10 14 0 7 11 29 24 49 13 19 22 37 20 40 -3 2 2 10 11 17 8 7
15 17 15 22 0 5 18 40 39 76 40 69 67 117 118 212 17 30 71 129 122 219 50 90
91 168 91 172 0 4 3 9 8 11 4 2 15 19 24 38 10 19 30 58 46 85 32 56 63 111
112 200 18 33 64 115 101 183 38 67 69 127 69 132 0 6 5 10 10 10 6 0 10 5 10
11 0 6 9 24 21 40 11 16 17 29 13 29 -4 0 0 8 8 18 8 9 18 24 21 32 4 8 22 42
41 75 20 33 46 80 58 105 13 25 25 47 28 50 3 3 20 34 39 70 19 36 39 72 46
80 7 8 21 34 31 58 10 23 22 41 27 39 5 -1 39 -61 76 -132 37 -72 102 -197
145 -280 43 -82 81 -154 84 -160 4 -5 7 -16 8 -23 1 -7 8 -20 15 -28 6 -8 34
-58 61 -112 55 -106 188 -364 278 -537 81 -155 194 -373 218 -420 11 -22 19
-43 18 -46 0 -4 6 -15 15 -25 9 -11 41 -68 71 -129 96 -189 133 -260 138 -265
3 -3 26 -48 52 -100 27 -52 97 -189 158 -305 61 -115 117 -226 126 -247 15
-35 17 -36 76 -40 33 -1 62 0 65 5 2 4 9 5 14 1 5 -3 49 -5 97 -4 48 1 92 1
97 1 82 -1 262 -1 270 0 6 0 25 0 43 -1 92 -5 172 -4 172 2 0 3 8 4 18 2 30
-7 142 -9 142 -2 0 3 8 4 18 2 30 -7 142 -9 142 -2 0 3 8 4 18 2 34 -8 142 -9
142 -1 0 5 4 6 9 2 9 -5 230 -9 256 -4 6 1 14 0 20 -1 5 -1 48 -1 95 0 47 1
90 1 95 1 87 -1 262 -1 270 0 6 1 14 0 20 -1 5 -1 48 -1 95 0 47 1 90 1 95 1
87 -1 262 -1 270 0 6 1 14 1 18 0 21 -4 299 -2 303 2 2 2 23 1 47 -2 23 -3 69
-4 102 -1 33 3 71 2 85 -1 39 -10 58 2 161 103 53 51 182 175 285 274 104 100
242 233 306 295 65 63 181 175 258 249 77 74 189 182 249 240 60 58 202 195
316 305 115 110 270 259 344 332 75 72 161 155 191 183 30 29 146 141 258 249
112 108 243 233 290 279 48 46 181 174 296 285 115 111 239 231 276 267 147
141 488 469 566 545 46 44 165 159 265 255 100 96 209 202 243 235 35 33 156
150 270 260 114 110 256 246 314 303 59 57 142 137 184 178 l77 74 -1502 0
-1503 0 -40 -36 c-34 -31 -115 -109 -459 -439 -54 -52 -317 -307 -707 -686
-106 -104 -367 -358 -719 -701 -123 -120 -532 -517 -744 -723 -74 -71 -348
-335 -474 -455 -231 -220 -344 -326 -352 -328 -5 -2 -9 3 -9 11 0 9 -3 17 -7
19 -10 4 -153 290 -152 302 0 5 -3 12 -8 15 -5 3 -100 186 -210 406 -111 220
-311 618 -446 885 -135 267 -270 537 -301 600 -31 63 -61 122 -66 130 -5 8
-19 35 -30 60 -11 25 -26 55 -33 68 -6 12 -109 213 -227 447 l-215 425 -1676
0 -1675 0 -50 -86 c-27 -48 -59 -103 -71 -123 -13 -20 -28 -45 -33 -56 -6 -11
-16 -29 -23 -40 -7 -11 -28 -47 -47 -80 -18 -33 -40 -66 -47 -73 -7 -7 -13
-18 -13 -22 0 -5 -27 -55 -60 -110 -33 -55 -60 -103 -60 -106 0 -3 -12 -21
-26 -40 -15 -19 -22 -34 -18 -34 5 0 4 -4 -2 -8 -6 -4 -26 -35 -45 -69 -18
-35 -37 -63 -41 -63 -5 0 -8 -9 -8 -20 0 -11 -3 -20 -7 -20 -5 0 -17 -18 -27
-40 -11 -22 -23 -40 -28 -40 -4 0 -8 -5 -8 -11 0 -6 -29 -60 -65 -120 -36 -61
-65 -115 -65 -120 0 -5 -3 -9 -7 -9 -5 0 -13 -10 -19 -23 -18 -38 -66 -121
-85 -149 -11 -14 -19 -29 -19 -33 0 -4 -14 -27 -30 -52 -16 -24 -30 -46 -30
-48 0 -2 -37 -66 -82 -143 -46 -78 -90 -153 -100 -169 -9 -15 -44 -75 -78
-133 -34 -58 -73 -124 -86 -147 -13 -23 -54 -93 -90 -155 -37 -62 -75 -127
-85 -145 -17 -30 -50 -85 -76 -128 -7 -11 -42 -72 -79 -135 -37 -63 -82 -142
-102 -175 -19 -33 -44 -76 -56 -96 -11 -20 -54 -93 -95 -162 -40 -70 -77 -127
-81 -127 -4 0 -18 9 -31 21 -13 11 -35 30 -49 42 -14 12 -54 46 -90 76 -36 30
-66 59 -68 63 -2 4 -10 8 -17 8 -7 0 -15 4 -17 8 -1 4 -64 59 -138 122 -74 63
-145 124 -156 135 -12 11 -32 29 -45 39 -35 28 -150 128 -175 151 -11 11 -47
43 -79 70 -32 28 -63 55 -69 60 -6 6 -50 44 -96 85 -102 89 -107 93 -146 128
-65 57 -112 100 -194 172 -47 41 -90 80 -96 85 -6 6 -40 35 -74 65 -35 30 -78
69 -95 85 -18 17 -61 55 -96 85 -35 30 -68 60 -74 65 -5 6 -46 42 -90 81 -44
38 -85 74 -91 79 -6 6 -41 37 -79 70 -37 33 -80 71 -95 85 -15 14 -41 36 -57
50 -36 30 -167 146 -200 177 -13 12 -23 20 -23 16 0 -3 -8 4 -17 15 -17 19
-58 56 -192 172 -35 30 -72 62 -81 70 -9 8 -46 40 -80 70 -35 30 -68 60 -74
65 -6 6 -76 66 -156 135 -80 68 -156 134 -170 146 -44 38 -184 157 -240 204
-30 25 -73 61 -96 80 -23 19 -51 43 -63 52 -11 10 -64 53 -117 97 l-96 80
-1402 -1 c-772 0 -1407 -3 -1412 -6z"/>
</g>
</svg>
