<?xml version="1.0" encoding="utf-8"?>
<!-- Generator: Adobe Illustrator 27.6.1, SVG Export Plug-In . SVG Version: 6.00 Build 0)  -->
<svg version="1.1" id="Layer_1" xmlns="http://www.w3.org/2000/svg" xmlns:xlink="http://www.w3.org/1999/xlink" x="0px" y="0px"
	 width="1109.7px" height="250.6px" viewBox="0 0 1109.7 250.6" style="enable-background:new 0 0 1109.7 250.6;"
	 xml:space="preserve">
<style type="text/css">
	.st0{fill:#FFFFFF;}
	.st1{fill:none;}
</style>
<path class="st0" d="M852.3,248.1L1107.2,2.5H956.7C914,42.8,823.8,132.3,781.8,171.3L696.7,2.5H529.1l-97.2,165.9l-22.4-18.8
	c-46.1-39.6-119.9-107.1-168.9-147h-141L2.5,248.1h146c15.6-40.2,40.2-101.5,53.1-139.8l1.5-0.3c46.1,39.6,122.1,100.2,171.1,140.1
	l168.3-0.6l79.1-142.4l74.2,143H852.3"/>
<path class="st1" d="M852.3,248.1L1107.2,2.5H956.7C914,42.8,823.8,132.3,781.8,171.3L696.7,2.5H529.1l-97.2,165.9l-22.4-18.8
	c-46.1-39.6-119.9-107.1-168.9-147h-141L2.5,248.1h146c15.6-40.2,40.2-101.5,53.1-139.8l1.5-0.3c46.1,39.6,122.1,100.2,171.1,140.1
	l168.3-0.6l79.1-142.4l74.2,143H852.3"/>
</svg>
